<svg width="824" height="796" viewBox="0 0 824 796" fill="none" xmlns="http://www.w3.org/2000/svg">
<g filter="url(#filter0_di_799_2620)">
<path d="M114.77 292.751C177.939 144.951 362.287 72.2781 526.523 130.432C690.759 188.586 772.69 355.545 709.521 503.345C646.352 651.145 597.893 744.635 297.768 665.663C133.532 607.509 38.3926 447.635 114.77 292.751Z" fill="#68C9FF"/>
<path fill-rule="evenodd" clip-rule="evenodd" d="M139.918 249.981C137.982 250.664 136.368 252.015 135.271 253.751C127.477 266.08 120.606 279.095 114.77 292.751C47.1176 429.941 114.033 571.047 244.34 641.91C248.15 643.982 252.891 643.282 255.863 640.123C260.037 635.687 264.538 630.458 267.502 625.749C275.242 613.454 277.617 605.233 281.062 591.122C284.911 575.359 285.506 565.951 284.802 549.713L284.761 548.758C284.119 533.895 283.725 524.781 278.109 510.68C273.211 498.384 268.122 492.033 260.223 482.176C259.691 481.511 259.146 480.831 258.588 480.132C252.005 471.895 245.641 466.822 239.134 461.634C233.473 457.121 227.704 452.522 221.588 445.678L220.857 444.86C202.813 424.669 191.87 412.424 181.549 387.129C173.436 367.245 183.604 284.75 187.824 253.698C188.667 247.497 183.732 242.072 177.502 242.672C167.086 243.677 151.846 245.769 139.918 249.981ZM548.633 483.382C564.996 477.438 586.672 473.095 596.774 471.248C600.264 470.61 603.194 468.234 604.48 464.928L642.738 366.581C643.58 364.417 643.643 362.029 642.916 359.825L600.468 231.039C599.944 229.448 599.028 228.014 597.804 226.869L507.135 142.007C505.902 140.852 504.395 140.029 502.757 139.614L408.531 115.751C404.348 114.691 399.962 116.435 397.838 120.191C392.377 129.848 382.784 148.712 382.884 161.885C382.938 168.89 383.64 174.724 384.309 180.29C385.352 188.96 386.317 196.976 384.629 207.747C381.81 225.73 376.462 235.797 368.459 250.864C367.725 252.246 366.968 253.67 366.19 255.146C361.089 264.811 352.741 271.322 344.883 277.45C333.478 286.345 323.105 294.435 325.188 310.198C326.554 320.536 332.54 327.908 338.809 335.627C342.092 339.669 345.452 343.807 348.266 348.515C352.337 355.328 356.113 360.643 359.597 365.548C366.51 375.281 372.277 383.399 376.935 398.397C379.988 408.23 380.76 413.451 381.434 418.016C382.305 423.913 383.014 428.714 388.275 440.951C398.368 464.422 408.599 486.01 431.497 497.667C453.253 508.742 494.739 523.233 518.5 518C531.284 515.184 532.609 508.544 534.006 501.544C535.354 494.785 536.77 487.691 548.633 483.382Z" fill="#ABF47F"/>
</g>
<g filter="url(#filter1_i_799_2620)">
<path d="M301.713 601.431C301.961 600.641 302.802 600.201 303.593 600.448L328.458 608.236C329.248 608.484 329.689 609.325 329.441 610.116L327.751 615.512C327.503 616.303 326.662 616.743 325.871 616.495L311.196 611.899C310.406 611.652 309.564 612.092 309.316 612.882L308.013 617.045C307.765 617.836 308.205 618.677 308.996 618.925L322.222 623.068C323.013 623.315 323.453 624.157 323.206 624.947L321.515 630.344C321.268 631.134 320.426 631.575 319.636 631.327L306.409 627.184C305.618 626.937 304.777 627.377 304.529 628.167L303.225 632.33C302.978 633.121 303.418 633.963 304.208 634.21L318.83 638.79C319.62 639.037 320.06 639.879 319.813 640.669L318.122 646.066C317.875 646.856 317.033 647.297 316.243 647.049L291.431 639.278C290.641 639.03 290.201 638.189 290.448 637.398L301.713 601.431Z" fill="#FDFDFD"/>
<path d="M329.377 650.949C328.385 650.697 327.932 649.547 328.484 648.685L349.925 615.246C350.274 614.702 350.931 614.443 351.557 614.602L363.567 617.653C364.194 617.813 364.648 618.355 364.694 619L367.521 658.606C367.594 659.626 366.647 660.418 365.656 660.167L357.578 658.114C356.939 657.952 356.481 657.391 356.449 656.733L356.152 650.612C356.12 649.954 355.662 649.393 355.024 649.231L343.968 646.422C343.328 646.259 342.656 646.535 342.315 647.101L339.157 652.334C338.816 652.9 338.144 653.176 337.503 653.013L329.377 650.949ZM353.729 640.552C354.706 640.8 355.645 640.032 355.596 639.025L355.008 626.952C355.003 626.852 354.934 626.767 354.837 626.743V626.743C354.74 626.718 354.638 626.76 354.586 626.845L348.328 637.181C347.806 638.043 348.265 639.164 349.242 639.412L353.729 640.552Z" fill="#FDFDFD"/>
<path d="M384.198 624.102C384.356 623.289 385.144 622.758 385.957 622.917L401.474 625.949C404.434 626.527 406.921 627.576 408.933 629.095C410.965 630.618 412.387 632.519 413.202 634.797C414.021 637.056 414.159 639.574 413.616 642.351C413.085 645.072 412.031 647.29 410.455 649.005C409.241 650.346 407.773 651.347 406.053 652.008C405.247 652.318 404.755 653.182 405.016 654.006L409.014 666.62C409.358 667.706 408.415 668.764 407.297 668.545L399.244 666.972C398.7 666.866 398.259 666.468 398.097 665.939L394.133 652.982C393.971 652.452 393.53 652.055 392.986 651.949L391.233 651.606C390.419 651.447 389.632 651.978 389.473 652.791L387.451 663.14C387.292 663.953 386.504 664.483 385.691 664.324L378.155 662.852C377.342 662.693 376.812 661.905 376.971 661.092L384.198 624.102ZM395.448 643.897C397.489 644.296 399.11 644.203 400.313 643.617C401.534 643.035 402.309 641.898 402.64 640.206C402.977 638.478 402.696 637.087 401.794 636.033C400.893 634.978 399.431 634.254 397.409 633.859L394.799 633.349C393.986 633.19 393.199 633.72 393.04 634.533L391.654 641.628C391.495 642.441 392.025 643.229 392.838 643.388L395.448 643.897Z" fill="#FDFDFD"/>
<path d="M419.053 670.602C418.039 670.462 417.46 669.37 417.913 668.452L435.491 632.83C435.777 632.251 436.401 631.92 437.041 632.008L449.316 633.701C449.957 633.79 450.468 634.278 450.586 634.914L457.813 673.957C457.999 674.963 457.147 675.856 456.133 675.716L447.877 674.577C447.224 674.487 446.706 673.982 446.601 673.331L445.624 667.281C445.519 666.63 445.001 666.125 444.348 666.035L433.048 664.476C432.394 664.386 431.757 664.735 431.481 665.335L428.927 670.888C428.65 671.489 428.014 671.838 427.359 671.748L419.053 670.602ZM442.093 657.554C443.092 657.692 443.94 656.824 443.779 655.829L441.848 643.897C441.832 643.798 441.753 643.721 441.654 643.707V643.707C441.555 643.694 441.458 643.747 441.416 643.838L436.35 654.807C435.928 655.721 436.509 656.784 437.507 656.922L442.093 657.554Z" fill="#FDFDFD"/>
</g>
<defs>
<filter id="filter0_di_799_2620" x="78.0005" y="104.385" width="662.844" height="604.017" filterUnits="userSpaceOnUse" color-interpolation-filters="sRGB">
<feFlood flood-opacity="0" result="BackgroundImageFix"/>
<feColorMatrix in="SourceAlpha" type="matrix" values="0 0 0 0 0 0 0 0 0 0 0 0 0 0 0 0 0 0 127 0" result="hardAlpha"/>
<feOffset dy="4"/>
<feGaussianBlur stdDeviation="5"/>
<feComposite in2="hardAlpha" operator="out"/>
<feColorMatrix type="matrix" values="0 0 0 0 0.172549 0 0 0 0 0.172549 0 0 0 0 0.172549 0 0 0 0.07 0"/>
<feBlend mode="normal" in2="BackgroundImageFix" result="effect1_dropShadow_799_2620"/>
<feBlend mode="normal" in="SourceGraphic" in2="effect1_dropShadow_799_2620" result="shape"/>
<feColorMatrix in="SourceAlpha" type="matrix" values="0 0 0 0 0 0 0 0 0 0 0 0 0 0 0 0 0 0 127 0" result="hardAlpha"/>
<feOffset dx="-5" dy="-5"/>
<feGaussianBlur stdDeviation="5"/>
<feComposite in2="hardAlpha" operator="arithmetic" k2="-1" k3="1"/>
<feColorMatrix type="matrix" values="0 0 0 0 1 0 0 0 0 1 0 0 0 0 1 0 0 0 0.25 0"/>
<feBlend mode="normal" in2="shape" result="effect2_innerShadow_799_2620"/>
</filter>
<filter id="filter1_i_799_2620" x="290.379" y="595.379" width="169.459" height="80.3513" filterUnits="userSpaceOnUse" color-interpolation-filters="sRGB">
<feFlood flood-opacity="0" result="BackgroundImageFix"/>
<feBlend mode="normal" in="SourceGraphic" in2="BackgroundImageFix" result="shape"/>
<feColorMatrix in="SourceAlpha" type="matrix" values="0 0 0 0 0 0 0 0 0 0 0 0 0 0 0 0 0 0 127 0" result="hardAlpha"/>
<feOffset dx="2" dy="-5"/>
<feGaussianBlur stdDeviation="3.5"/>
<feComposite in2="hardAlpha" operator="arithmetic" k2="-1" k3="1"/>
<feColorMatrix type="matrix" values="0 0 0 0 0 0 0 0 0 0 0 0 0 0 0 0 0 0 0.1 0"/>
<feBlend mode="normal" in2="shape" result="effect1_innerShadow_799_2620"/>
</filter>
</defs>
</svg>
