<svg width="24" height="24" viewBox="0 0 24 24" fill="none" xmlns="http://www.w3.org/2000/svg">
<path d="M21 4.125C21 8.11875 18.0258 11.4199 14.1727 11.9297C13.923 10.0523 13.0969 8.35781 11.877 7.03242C13.2234 4.62773 15.7969 3 18.75 3H19.875C20.4973 3 21 3.50273 21 4.125ZM3 6.375C3 5.75273 3.50273 5.25 4.125 5.25H5.25C9.59883 5.25 13.125 8.77617 13.125 13.125V14.25V19.875C13.125 20.4973 12.6223 21 12 21C11.3777 21 10.875 20.4973 10.875 19.875V14.25C6.52617 14.25 3 10.7238 3 6.375Z" fill="#AFAFAF"/>
</svg>
