<svg width="24" height="24" viewBox="0 0 24 24" fill="none" xmlns="http://www.w3.org/2000/svg">
<g clip-path="url(#clip0_411_4339)">
<path d="M11.617 20.8795L20.7274 20.8725L20.7204 11.762L11.61 11.755L11.617 20.8795ZM18.7396 18.8846H13.5978L13.6049 13.7499L18.7466 13.7499L18.7396 18.8846ZM3.33542 12.2748C3.3284 14.7403 4.33286 16.981 5.94844 18.5966L3.67259 20.8725L9.62914 20.8725L9.62914 14.9159L7.35329 17.1918C6.09595 15.9344 5.31626 14.1994 5.31626 12.2748C5.31626 8.43957 8.43502 5.32081 12.2703 5.32081C14.1949 5.32081 15.9299 6.1005 17.1872 7.35784C17.8686 8.03919 18.4024 8.86805 18.7536 9.7812L20.8468 9.7812C20.4184 8.31314 19.6387 6.9996 18.5921 5.95299C16.9765 4.33742 14.7358 3.33295 12.2703 3.33998C7.33221 3.33295 3.3284 7.33677 3.33542 12.2748Z" fill="#1C1C1C"/>
</g>
<defs>
<clipPath id="clip0_411_4339">
<rect width="24" height="24" fill="white"/>
</clipPath>
</defs>
</svg>
